<svg xmlns="http://www.w3.org/2000/svg" viewBox="0 0 120 120" width="120" height="120" role="img" aria-label="Via Rozbrat">
  <circle cx="60" cy="60" r="60" fill="#37503D"/>
  <path d="M22 78 a38 35 0 0 1 76 0 z" fill="#EFE9DA"/>
  <path d="M22 78 h76 v7 a3 3 0 0 1 -3 3 h-70 a3 3 0 0 1 -3 -3 z" fill="#D8CFB8"/>
  <rect x="78" y="30" width="11" height="26" rx="2.5" fill="#EFE9DA"/>
  <path d="M56 56 c-7 -6 -3 -13 2 -16 c-1 6 4 7 4 12 c3 -2 3 -6 1 -9 c5 3 6 11 1 16 c-3 3 -9 2 -8 -3z" fill="#E8845C"/>
  <path d="M56 56 c-4 -3 -2 -8 1 -10 c0 4 3 3 2 7 c2 -1 2 -4 1 -6 c3 2 4 7 0 10 c-2 2 -6 1 -5 -1z" fill="#F5C542"/>
</svg>
